HIERARCHY
ROOT joint_Root
{
	OFFSET 0.0 0.0 0.0
	CHANNELS 6 Xposition Yposition Zposition Zrotation Xrotation Yrotation 
	JOINT Hips
	{
		OFFSET -0.726466 93.3139 -2.00062
		CHANNELS 6 Xposition Yposition Zposition Zrotation Xrotation Yrotation 
		JOINT Spine
		{
			OFFSET 15.7357 0.0 0.0
			CHANNELS 6 Xposition Yposition Zposition Zrotation Xrotation Yrotation 
			JOINT Chest
			{
				OFFSET 8.98455 -0.406207 0.0
				CHANNELS 6 Xposition Yposition Zposition Zrotation Xrotation Yrotation 
				JOINT Neck
				{
					OFFSET 16.3773 0.0 0.0
					CHANNELS 6 Xposition Yposition Zposition Zrotation Xrotation Yrotation 
					JOINT Head
					{
						OFFSET 6.45672 0.0 0.0
						CHANNELS 6 Xposition Yposition Zposition Zrotation Xrotation Yrotation 
						End Site
						{
							OFFSET 0.0 0.0 0.0
						}
					}
				}
				JOINT Shoulder_L
				{
					OFFSET 12.9942 -0.242716 4.98039
					CHANNELS 6 Xposition Yposition Zposition Zrotation Xrotation Yrotation 
					JOINT UpperArm_L
					{
						OFFSET 5.34809 0.0 0.0
						CHANNELS 6 Xposition Yposition Zposition Zrotation Xrotation Yrotation 
						JOINT LowerArm_L
						{
							OFFSET 24.3286 1.87007e-05 0.0
							CHANNELS 6 Xposition Yposition Zposition Zrotation Xrotation Yrotation 
							JOINT Hand_L
							{
								OFFSET 22.2916 0.0 0.0
								CHANNELS 6 Xposition Yposition Zposition Zrotation Xrotation Yrotation 
								End Site
								{
									OFFSET 0.0 0.0 0.0
								}
							}
						}
					}
				}
				JOINT Shoulder_R
				{
					OFFSET 12.9945 -0.242716 -4.98039
					CHANNELS 6 Xposition Yposition Zposition Zrotation Xrotation Yrotation 
					JOINT UpperArm_R
					{
						OFFSET -5.34813 0.0 0.0
						CHANNELS 6 Xposition Yposition Zposition Zrotation Xrotation Yrotation 
						JOINT LowerArm_R
						{
							OFFSET -24.3289 0.000322201 0.0
							CHANNELS 6 Xposition Yposition Zposition Zrotation Xrotation Yrotation 
							JOINT Hand_R
							{
								OFFSET -22.2915 -0.000108084 0.0
								CHANNELS 6 Xposition Yposition Zposition Zrotation Xrotation Yrotation 
								End Site
								{
									OFFSET 0.0 0.0 0.0
								}
							}
						}
					}
				}
			}
		}
		JOINT UpperLeg_L
		{
			OFFSET -2.19248 -6.46944 0.0
			CHANNELS 6 Xposition Yposition Zposition Zrotation Xrotation Yrotation 
			JOINT LowerLeg_L
			{
				OFFSET 39.0811 0.0 -1.23785e-05
				CHANNELS 6 Xposition Yposition Zposition Zrotation Xrotation Yrotation 
				JOINT Foot_L
				{
					OFFSET 40.9854 0.0 -1.26872e-05
					CHANNELS 6 Xposition Yposition Zposition Zrotation Xrotation Yrotation 
					JOINT Toes_L
					{
						OFFSET 11.7543 0.0 0.0
						CHANNELS 6 Xposition Yposition Zposition Zrotation Xrotation Yrotation 
						End Site
						{
							OFFSET 0.0 0.0 0.0
						}
					}
				}
			}
		}
		JOINT UpperLeg_R
		{
			OFFSET -2.19251 6.46944 0.0
			CHANNELS 6 Xposition Yposition Zposition Zrotation Xrotation Yrotation 
			JOINT LowerLeg_R
			{
				OFFSET -39.0811 -0.00228153 -0.0401928
				CHANNELS 6 Xposition Yposition Zposition Zrotation Xrotation Yrotation 
				JOINT Foot_R
				{
					OFFSET -40.9854 0.0 0.0
					CHANNELS 6 Xposition Yposition Zposition Zrotation Xrotation Yrotation 
					JOINT Toes_R
					{
						OFFSET -11.7543 0.0 0.0
						CHANNELS 6 Xposition Yposition Zposition Zrotation Xrotation Yrotation 
						End Site
						{
							OFFSET 0.0 0.0 0.0
						}
					}
				}
			}
		}
	}
}
MOTION
Frames:	4
Frame Time:	0.0333333
0.000000 0.000000 0.000000 0.000000 0.000000 -0.000000 -201.584000 86.099300 199.336000 -62.290000 82.026200 154.974000 15.735700 0.000005 -0.000001 72.878500 79.908000 -69.942700 8.984550 -0.406207 -0.000000 11.723900 -5.791920 6.468950 16.377300 -0.000001 -0.000001 9.836810 -3.359890 0.581965 6.456720 -0.000001 -0.000000 3.359750 -0.176130 -0.391954 12.994200 -0.242716 4.980390 -88.512800 -3.852970 -68.875200 5.348090 -0.000007 -0.000001 -57.099700 30.871900 -22.373300 24.328600 0.000019 0.000005 9.759340 8.124790 -50.592900 22.291600 -0.000001 0.000005 3.302880 5.606190 -11.715700 12.994500 -0.242716 -4.980390 89.063800 1.777190 -62.215000 -5.348130 -0.000001 -0.000004 -58.623300 29.304400 -4.418960 -24.328900 0.000322 -0.000009 1.157260 1.682510 -34.558900 -22.291500 -0.000108 -0.000004 4.435590 5.522410 -7.464920 -2.192480 -6.469440 -0.000000 -164.884000 -2.334060 0.123893 39.081100 -0.000007 -0.000012 0.199945 -0.109735 61.239800 40.985400 -0.000006 -0.000013 -3.291030 1.787520 -52.388700 11.754300 -0.000000 0.000003 -0.006533 -0.075611 -19.654500 -2.192510 6.469440 -0.000001 -171.445000 24.040500 151.270000 -39.081100 -0.002282 -0.040193 -0.126179 0.115468 48.263500 -40.985400 0.000008 0.000006 5.248610 -10.024100 -69.418700 -11.754300 -0.000006 -0.000006 -0.007895 -0.087171 -20.122600
0.000000 0.000000 0.000000 0.000000 0.000000 -0.000000 -197.938000 87.337600 199.581000 -58.970500 83.953700 151.945000 15.735700 0.000005 -0.000001 77.608500 80.326500 -75.108000 8.984550 -0.406207 -0.000000 11.244800 -4.043900 5.398740 16.377300 -0.000001 -0.000001 9.802320 -3.246880 0.706185 6.456720 -0.000001 -0.000000 3.672310 -1.440640 -0.379324 12.994200 -0.242716 4.980390 -88.536400 -3.601930 -67.867600 5.348090 -0.000007 -0.000001 -59.960400 32.729200 -17.510900 24.328600 0.000019 0.000005 10.472400 9.228600 -49.054400 22.291600 -0.000001 0.000005 2.238210 5.598520 -11.250700 12.994500 -0.242716 -4.980390 89.011100 1.955420 -63.166800 -5.348130 -0.000001 -0.000004 -56.971300 30.889800 -9.042830 -24.328900 0.000322 -0.000009 0.620786 0.849515 -36.223400 -22.291500 -0.000108 -0.000004 4.641570 5.526140 -7.625940 -2.192480 -6.469440 -0.000000 -166.536000 -4.103130 -4.069570 39.081100 -0.000007 -0.000012 0.183811 -0.084411 65.332700 40.985400 -0.000006 -0.000013 0.188214 -0.335550 -54.391200 11.754300 -0.000000 0.000003 -0.006592 -0.076128 -19.675600 -2.192510 6.469440 -0.000001 -172.770000 22.579200 156.430000 -39.081100 -0.002282 -0.040193 -0.060103 0.063468 44.954700 -40.985400 0.000008 0.000006 5.454410 -9.696870 -70.418300 -11.754300 -0.000006 -0.000006 -0.007245 -0.081751 -19.901400
0.000000 0.000000 0.000000 0.000000 0.000000 -0.000000 -194.599000 88.553100 199.678000 -55.808600 86.088700 148.822000 15.735700 0.000005 -0.000001 82.212600 80.677400 -80.309200 8.984550 -0.406207 -0.000000 10.758400 -2.458670 4.036700 16.377300 -0.000001 -0.000001 9.808040 -3.072030 0.660559 6.456720 -0.000001 -0.000000 3.806730 -2.553100 -0.123360 12.994200 -0.242716 4.980390 -88.540100 -3.402570 -66.760600 5.348090 -0.000007 -0.000001 -63.018400 33.257100 -12.023000 24.328600 0.000019 0.000005 10.219300 9.399720 -47.824700 22.291600 -0.000001 0.000005 1.845170 5.596140 -11.111600 12.994500 -0.242716 -4.980390 88.985000 2.099630 -64.192300 -5.348130 -0.000001 -0.000004 -54.655000 32.200400 -14.438600 -24.328900 0.000322 -0.000009 -0.056131 -0.071022 -37.653500 -22.291500 -0.000108 -0.000004 5.177910 5.529280 -7.763140 -2.192480 -6.469440 -0.000000 -168.682000 -6.039850 -8.636790 39.081100 -0.000007 -0.000012 0.171093 -0.073362 66.789500 40.985400 -0.000006 -0.000013 0.332525 -1.224690 -55.301500 11.754300 -0.000000 0.000003 -0.005122 -0.062644 -19.125700 -2.192510 6.469440 -0.000001 -174.385000 21.571500 161.303000 -39.081100 -0.002282 -0.040193 0.002985 0.000335 40.993100 -40.985400 0.000008 0.000006 5.586390 -8.781900 -70.852800 -11.754300 -0.000006 -0.000006 -0.006633 -0.076480 -19.686200
0.000000 0.000000 0.000000 0.000000 0.000000 -0.000000 -191.425000 89.643400 199.733000 -40.292400 88.077400 133.321000 15.735700 0.000005 -0.000001 86.876700 80.907800 -85.538600 8.984550 -0.406207 -0.000000 10.405100 -0.953312 2.761430 16.377300 -0.000001 -0.000001 9.811220 -2.583110 0.656540 6.456720 -0.000001 -0.000000 3.619200 -3.648230 -0.029051 12.994200 -0.242716 4.980390 -88.440500 -3.416360 -65.446700 5.348090 -0.000007 -0.000001 -65.928400 32.663100 -6.752190 24.328600 0.000019 0.000005 9.034180 8.714030 -46.381100 22.291600 -0.000001 0.000005 1.716040 5.591060 -10.821200 12.994500 -0.242716 -4.980390 89.141300 1.884220 -65.495900 -5.348130 -0.000001 -0.000004 -52.565100 32.608000 -20.041800 -24.328900 0.000322 -0.000009 -0.657517 -0.827083 -38.434700 -22.291500 -0.000108 -0.000004 5.763770 5.529790 -7.785750 -2.192480 -6.469440 -0.000000 -170.643000 -7.912740 -12.769800 39.081100 -0.000007 -0.000012 0.150814 -0.068881 65.450800 40.985400 -0.000006 -0.000013 -0.037605 0.647966 -56.977000 11.754300 -0.000000 0.000003 -0.004851 -0.060022 -19.018800 -2.192510 6.469440 -0.000001 -175.813000 20.696700 166.128000 -39.081100 -0.002282 -0.040193 0.059621 -0.075934 36.570900 -40.985400 0.000008 0.000006 6.108900 -7.684220 -70.860200 -11.754300 -0.000006 -0.000006 -0.006768 -0.077656 -19.734200
